<svg xmlns="http://www.w3.org/2000/svg" xmlns:xlink="http://www.w3.org/1999/xlink" width="25" height="25" viewBox="0 0 25 25">
  <defs>
    <clipPath id="clip-path">
      <rect id="Rectangle_1377" data-name="Rectangle 1377" width="21.974" height="20.941" transform="translate(0 0)" fill="none"/>
    </clipPath>
  </defs>
  <g id="Group_10940" data-name="Group 10940" transform="translate(-1186 -995)">
    <rect id="Rectangle_1429" data-name="Rectangle 1429" width="25" height="25" transform="translate(1186 995)" fill="#fff"/>
    <g id="Component_97_10" data-name="Component 97 – 10" transform="translate(1188 997)">
      <g id="Group_10846" data-name="Group 10846" transform="translate(0 0)" clip-path="url(#clip-path)">
        <path id="Path_1806" data-name="Path 1806" d="M2.647,4.81a2.756,2.756,0,0,0,1.93-.693,2.209,2.209,0,0,0,.759-1.7A2.6,2.6,0,0,0,4.527.67,2.559,2.559,0,0,0,2.712,0,2.84,2.84,0,0,0,.748.67,2.228,2.228,0,0,0,0,2.416a2.287,2.287,0,0,0,.7,1.7,2.654,2.654,0,0,0,1.945.693M4.991,6.787H.255V20.942H4.991Zm16.958,6.065A6.693,6.693,0,0,0,20.433,8a5.193,5.193,0,0,0-3.86-1.541,4.243,4.243,0,0,0-2.849.808,7.864,7.864,0,0,0-1.4,1.54V6.787H7.634V20.942h4.68V12.427a1.208,1.208,0,0,1,.115-.539,3.5,3.5,0,0,1,.863-1.184,2.263,2.263,0,0,1,1.6-.54,1.9,1.9,0,0,1,1.792.907,4.612,4.612,0,0,1,.528,2.332v7.538h4.735Zm-9.7-3.975a.061.061,0,0,1,.051-.069h.017v.069Z" fill="#fe5000"/>
      </g>
    </g>
  </g>
</svg>
