<svg xmlns="http://www.w3.org/2000/svg" xmlns:xlink="http://www.w3.org/1999/xlink" width="25" height="25" viewBox="0 0 25 25">
  <defs>
    <clipPath id="clip-path">
      <rect id="Rectangle_1379" data-name="Rectangle 1379" width="24.705" height="20.036" transform="translate(0 0)" fill="none"/>
    </clipPath>
  </defs>
  <g id="Group_12004" data-name="Group 12004" transform="translate(6803 -3458)">
    <g id="Component_95_55" data-name="Component 95 – 55" transform="translate(-6803 3460)">
      <g id="Group_10850" data-name="Group 10850" transform="translate(0 0)" clip-path="url(#clip-path)">
        <path id="Path_1808" data-name="Path 1808" d="M7.781,20.036A14.11,14.11,0,0,0,17.1,16.629a15.006,15.006,0,0,0,4.211-6.2,13.932,13.932,0,0,0,.855-4.589v-.9a8.029,8.029,0,0,0,1.4-1.206,13.271,13.271,0,0,0,1.14-1.4h-.024a8.57,8.57,0,0,1-2.839.8V3.1a7.468,7.468,0,0,0,1.065-.828A5.782,5.782,0,0,0,24,.327a10.786,10.786,0,0,1-2.034.95,7.855,7.855,0,0,1-1.16.285A5.322,5.322,0,0,0,17.11,0a5.036,5.036,0,0,0-3.549,1.444,4.822,4.822,0,0,0-1.538,3.6A5.388,5.388,0,0,0,12.165,6.2,13.606,13.606,0,0,1,5.09,3.928,15.583,15.583,0,0,1,1.708.9a5.193,5.193,0,0,0-.665,2.437A5.3,5.3,0,0,0,2.225,6.719a3.93,3.93,0,0,0,1,.9v.048A4.946,4.946,0,0,1,1,7.051a5.084,5.084,0,0,0,1.538,3.691,5.385,5.385,0,0,0,1.751,1.112,3.854,3.854,0,0,0,.71.19q0,.048-.57.166H3.643a7.5,7.5,0,0,1-.923-.072,5.2,5.2,0,0,0,2.13,2.721,4.944,4.944,0,0,0,2.626.8,10.954,10.954,0,0,1-1.443.95,9.984,9.984,0,0,1-4.684,1.235A10.317,10.317,0,0,1,0,17.777a14.158,14.158,0,0,0,7.781,2.259" fill="#fe5000"/>
      </g>
    </g>
    <rect id="Rectangle_1766" data-name="Rectangle 1766" width="25" height="25" transform="translate(-6803 3458)" fill="none"/>
  </g>
</svg>
