<svg id="Group_12007" data-name="Group 12007" xmlns="http://www.w3.org/2000/svg" xmlns:xlink="http://www.w3.org/1999/xlink" width="100" height="15.698" viewBox="0 0 100 15.698">
  <defs>
    <clipPath id="clip-path">
      <rect id="Rectangle_1387" data-name="Rectangle 1387" width="100" height="15.698" fill="#fe5000"/>
    </clipPath>
  </defs>
  <g id="Group_10874" data-name="Group 10874" clip-path="url(#clip-path)">
    <path id="Path_1811" data-name="Path 1811" d="M58.648,5.6V14.5a.99.99,0,0,0,.277.716.974.974,0,0,0,.7.3.977.977,0,0,0,.7-.3.986.986,0,0,0,.276-.716.159.159,0,0,0,0-.043V5.6a.987.987,0,0,0-.3-.678.974.974,0,0,0-1.365,0,.987.987,0,0,0-.3.678ZM20.284,14.523v.017a.982.982,0,0,0,.6.913.972.972,0,0,0,1.066-.2.983.983,0,0,0,.292-.692l.005-8.919a.986.986,0,0,0-.286-.7.972.972,0,0,0-1.381,0,.986.986,0,0,0-.286.7Zm-2.349.019V9.268c0-3.2-1.792-4.716-4.42-4.716A4.858,4.858,0,0,0,9.359,6.561,3.989,3.989,0,0,0,5.608,4.552,4.367,4.367,0,0,0,1.879,6.274V5.6A.949.949,0,0,0,1.6,4.934a.935.935,0,0,0-1.329,0A.949.949,0,0,0,0,5.6v8.949a.993.993,0,0,0,.288.7.98.98,0,0,0,1.392,0,1,1,0,0,0,.288-.7v-.026l-.006-4.6c0-2.357,1.284-3.609,3.24-3.609,1.772,0,2.792,1.046,2.792,3.178v5.042a1,1,0,0,0,.066.388.992.992,0,0,0,.211.331.98.98,0,0,0,1.41,0,.995.995,0,0,0,.277-.719v-.024l-.01-4.588c0-2.357,1.284-3.609,3.24-3.609,1.772,0,2.792,1.046,2.792,3.178v5.049a.993.993,0,0,0,.3.678.976.976,0,0,0,1.365,0,.99.99,0,0,0,.3-.678ZM22.588,1.251A1.271,1.271,0,0,0,21.263,0,1.29,1.29,0,0,0,19.94,1.289a1.324,1.324,0,0,0,2.648-.041ZM35,14.537V9.268c0-3.2-1.854-4.716-4.482-4.716A4.617,4.617,0,0,0,26.625,6.3l.007-.719a.948.948,0,0,0-.276-.669.934.934,0,0,0-1.328,0,.948.948,0,0,0-.276.669v8.975h.021a.983.983,0,0,0,.29.693.973.973,0,0,0,1.381-.006.979.979,0,0,0,.265-.872V9.924c0-2.357,1.344-3.609,3.422-3.609,1.854,0,2.913,1.046,2.913,3.178l-.007,5.014v.023a.983.983,0,0,0,.294.68.969.969,0,0,0,.681.28.983.983,0,0,0,.678-.272A1,1,0,0,0,35,14.551ZM46.12,10.088a3.641,3.641,0,1,1-7.272,0,3.64,3.64,0,1,1,7.272,0m1.941,4.454L48.068,1.3s-.012,0-.012-.005a.985.985,0,0,0-.3-.676.972.972,0,0,0-1.361,0,.986.986,0,0,0-.3.676h0L46.1,6.3a4.58,4.58,0,0,0-3.768-1.744,5.257,5.257,0,0,0-5.459,5.533,5.277,5.277,0,0,0,5.459,5.558,4.551,4.551,0,0,0,3.85-1.845l-.007.749v.017a.951.951,0,0,0,.276.669.936.936,0,0,0,1.328,0,.948.948,0,0,0,.276-.669.165.165,0,0,0,0-.024Zm9.046-.3a.8.8,0,0,0-.439-.716.787.787,0,0,0-.832.078l-.012.006a1.857,1.857,0,0,1-1.34.377c-1.1,0-1.691-.656-1.691-1.824V6.277h2.311a.8.8,0,0,0,.57-.237.816.816,0,0,0,0-1.147.8.8,0,0,0-.57-.237H52.8V3.277a.989.989,0,0,0-.3-.678.974.974,0,0,0-1.365,0,.992.992,0,0,0-.3.678v8.967a3.091,3.091,0,0,0,3.423,3.4,4.551,4.551,0,0,0,2.416-.7.79.79,0,0,0,.43-.71ZM60.952,1.253A1.271,1.271,0,0,0,59.627,0a1.281,1.281,0,1,0,1.331,1.248ZM64.41,10a3.6,3.6,0,0,1,3.707-3.814,3.375,3.375,0,0,1,2.567,1.091V7.269a.9.9,0,0,0,.288.241.895.895,0,0,0,.731.048.9.9,0,0,0,.524-.516.91.91,0,0,0-.031-.737.9.9,0,0,0-.234-.295,5.025,5.025,0,0,0-3.827-1.543A5.41,5.41,0,0,0,62.431,10a5.429,5.429,0,0,0,5.7,5.557,5.012,5.012,0,0,0,3.851-1.576.936.936,0,0,0,.137-.151l.008-.008a.909.909,0,0,0-.16-1.218.9.9,0,0,0-1.219.066h-.005a3.327,3.327,0,0,1-2.631,1.163A3.59,3.59,0,0,1,64.409,10ZM83.055,14.65a.949.949,0,0,0-.232-.62L78.952,9.084l3.357-3.322a.834.834,0,0,0,.192-.269.843.843,0,0,0,.073-.322.832.832,0,0,0-.506-.79.821.821,0,0,0-.322-.066.827.827,0,0,0-.593.253L78.679,6.853,76.4,8.94V1.267a.988.988,0,0,0-.3-.678.975.975,0,0,0-1.365,0,.988.988,0,0,0-.3.678V14.478a.989.989,0,0,0,.3.678.975.975,0,0,0,1.365,0,.989.989,0,0,0,.3-.678V12.531l.007-.006v-.99l1.12-1.088.6.753.162.2,3.1,3.869a.941.941,0,0,0,1.5-.067.958.958,0,0,0,.169-.548Zm6.548.133a.809.809,0,0,0-.235-.57.8.8,0,0,0-.566-.235h-.041v0c-.081.006-.166.009-.256.009-1.12,0-1.671-.656-1.671-1.824V1.381a.984.984,0,0,0-.6-.935A.977.977,0,0,0,84.947,1a.992.992,0,0,0-.066.385v.027h-.009V12.323a3.008,3.008,0,0,0,3.28,3.323,4.077,4.077,0,0,0,.64-.059.8.8,0,0,0,.566-.236.808.808,0,0,0,.235-.57Zm8.385-6.422-6.71,2.2c-.007-.07-.016-.14-.018-.212a3.214,3.214,0,0,1,.005-.351,3.468,3.468,0,0,1,3.522-3.725,3.333,3.333,0,0,1,3.2,2.095Zm1.994.544a.773.773,0,0,0-.044-.249,5.093,5.093,0,0,0-5.148-4.048,5.291,5.291,0,0,0-5.419,5.533c0,3.24,2.322,5.557,5.806,5.557a5.312,5.312,0,0,0,4.236-1.68.865.865,0,0,0-.136-1.131.851.851,0,0,0-1.132,0,4.046,4.046,0,0,1-2.9,1.094,3.642,3.642,0,0,1-3.49-1.812l7.658-2.5c.018,0,.035-.011.053-.017l.052-.017v0A.79.79,0,0,0,100,8.9Z" fill="#fe5000"/>
    <path id="Path_1812" data-name="Path 1812" d="M165,1h1.674v.362h-.6V2.744H165.6V1.362H165Zm3.624,1.744,0-1-.534.815h-.212l-.534-.79v.971h-.445V1h.39l.7,1.051L168.676,1h.385l.009,1.744Z" transform="translate(-69.07 -0.419)" fill="#fe5000"/>
  </g>
</svg>
