<svg xmlns="http://www.w3.org/2000/svg" xmlns:xlink="http://www.w3.org/1999/xlink" width="140" height="21.977"
  viewBox="0 0 140 21.977">
  <defs>
    <clipPath id="a">
      <rect width="140" height="21.977" fill="none" />
    </clipPath>
  </defs>
  <g clip-path="url(#a)">
    <path
      d="M82.108,7.846V20.294a1.385,1.385,0,0,0,.387,1,1.364,1.364,0,0,0,.984.419,1.368,1.368,0,0,0,.984-.419,1.38,1.38,0,0,0,.387-1,.222.222,0,0,0-.006-.06V7.842a1.381,1.381,0,0,0-.416-.949,1.363,1.363,0,0,0-1.91,0,1.381,1.381,0,0,0-.416.949ZM28.4,20.333v.024a1.375,1.375,0,0,0,.833,1.279,1.36,1.36,0,0,0,1.492-.286,1.376,1.376,0,0,0,.409-.969l.007-12.487a1.381,1.381,0,0,0-.4-.973,1.361,1.361,0,0,0-1.933,0,1.381,1.381,0,0,0-.4.973Zm-3.288.027V12.975c0-4.478-2.509-6.6-6.188-6.6A6.8,6.8,0,0,0,13.1,9.185,5.585,5.585,0,0,0,7.851,6.372a6.114,6.114,0,0,0-5.22,2.411V7.844a1.329,1.329,0,0,0-.385-.936,1.309,1.309,0,0,0-1.861,0A1.329,1.329,0,0,0,0,7.844V20.373a1.391,1.391,0,0,0,.4.981,1.372,1.372,0,0,0,1.949,0,1.394,1.394,0,0,0,.4-.981v-.037l-.009-6.443c0-3.3,1.8-5.052,4.535-5.052,2.481,0,3.909,1.464,3.909,4.45V20.35a1.405,1.405,0,0,0,.093.543,1.389,1.389,0,0,0,.3.463,1.371,1.371,0,0,0,1.974,0,1.393,1.393,0,0,0,.387-1.006v-.033l-.015-6.423c0-3.3,1.8-5.052,4.535-5.052,2.481,0,3.909,1.464,3.909,4.45v7.068a1.39,1.39,0,0,0,.416.95,1.366,1.366,0,0,0,1.911,0,1.386,1.386,0,0,0,.415-.95ZM31.623,1.751A1.779,1.779,0,0,0,29.769,0a1.806,1.806,0,0,0-1.853,1.8,1.854,1.854,0,0,0,3.707-.058ZM49,20.351V12.975c0-4.478-2.6-6.6-6.275-6.6a6.464,6.464,0,0,0-5.448,2.441l.01-1.006a1.328,1.328,0,0,0-.386-.936,1.308,1.308,0,0,0-1.86,0,1.328,1.328,0,0,0-.386.936V20.372h.029a1.376,1.376,0,0,0,.405.97,1.362,1.362,0,0,0,1.933-.009,1.37,1.37,0,0,0,.371-1.221V13.893c0-3.3,1.882-5.052,4.79-5.052,2.6,0,4.079,1.464,4.079,4.45l-.01,7.02v.032a1.377,1.377,0,0,0,.411.952,1.356,1.356,0,0,0,.953.392,1.377,1.377,0,0,0,.95-.381,1.4,1.4,0,0,0,.43-.934Zm15.571-6.228a5.1,5.1,0,1,1-10.181,0,5.1,5.1,0,1,1,10.181,0m2.718,6.236L67.3,1.817s-.016,0-.016-.007a1.379,1.379,0,0,0-.414-.947,1.361,1.361,0,0,0-1.905,0,1.38,1.38,0,0,0-.415.947h.007l-.011,7.009a6.411,6.411,0,0,0-5.275-2.441,7.36,7.36,0,0,0-7.643,7.746A7.388,7.388,0,0,0,59.264,21.9a6.372,6.372,0,0,0,5.39-2.583l-.01,1.049V20.4a1.331,1.331,0,0,0,.386.937,1.31,1.31,0,0,0,1.86,0,1.328,1.328,0,0,0,.386-.937.228.228,0,0,0,0-.033Zm12.664-.422a1.116,1.116,0,0,0-.615-1,1.1,1.1,0,0,0-1.165.11l-.016.009a2.6,2.6,0,0,1-1.876.527c-1.54,0-2.367-.919-2.367-2.554V8.788h3.235a1.126,1.126,0,0,0,.8-.332,1.142,1.142,0,0,0,0-1.605,1.126,1.126,0,0,0-.8-.332H73.922V4.588a1.384,1.384,0,0,0-.415-.949,1.364,1.364,0,0,0-1.911,0,1.389,1.389,0,0,0-.416.949V17.142c0,3.074,1.741,4.766,4.793,4.766a6.372,6.372,0,0,0,3.383-.975,1.106,1.106,0,0,0,.6-.995ZM85.332,1.754A1.779,1.779,0,0,0,83.478,0a1.794,1.794,0,1,0,1.863,1.748Zm4.842,12.252a5.033,5.033,0,0,1,5.19-5.34,4.725,4.725,0,0,1,3.594,1.527v-.017a1.259,1.259,0,0,0,.4.338,1.253,1.253,0,0,0,1.023.068,1.259,1.259,0,0,0,.733-.722,1.275,1.275,0,0,0-.044-1.031,1.253,1.253,0,0,0-.327-.413,7.035,7.035,0,0,0-5.357-2.16C90.741,6.256,87.4,9.471,87.4,14a7.6,7.6,0,0,0,7.985,7.78,7.017,7.017,0,0,0,5.391-2.206,1.309,1.309,0,0,0,.191-.211l.011-.011a1.272,1.272,0,0,0-.224-1.705,1.253,1.253,0,0,0-1.706.092h-.007a4.658,4.658,0,0,1-3.683,1.629A5.025,5.025,0,0,1,90.172,14Zm26.1,6.5a1.328,1.328,0,0,0-.325-.868l-5.419-6.924,4.7-4.65a1.168,1.168,0,0,0,.269-.376,1.18,1.18,0,0,0,.1-.451,1.165,1.165,0,0,0-.709-1.105,1.149,1.149,0,0,0-.451-.092,1.158,1.158,0,0,0-.83.354l-3.464,3.2-3.193,2.921V1.774a1.383,1.383,0,0,0-.416-.95,1.365,1.365,0,0,0-1.91,0,1.383,1.383,0,0,0-.416.95v18.5a1.385,1.385,0,0,0,.416.95,1.365,1.365,0,0,0,1.91,0,1.385,1.385,0,0,0,.416-.95V17.543l.01-.009V16.149l1.568-1.524.844,1.054.226.282,4.335,5.416a1.317,1.317,0,0,0,2.1-.094,1.341,1.341,0,0,0,.236-.767Zm9.168.186a1.133,1.133,0,0,0-.329-.8,1.12,1.12,0,0,0-.793-.33h-.057v-.007c-.114.009-.232.012-.359.012-1.569,0-2.339-.918-2.339-2.553V1.934a1.38,1.38,0,0,0-.386-1,1.366,1.366,0,0,0-2.257.461,1.388,1.388,0,0,0-.092.54v.038h-.012v15.28c0,2.929,1.654,4.652,4.592,4.652a5.708,5.708,0,0,0,.9-.083,1.116,1.116,0,0,0,.793-.33,1.131,1.131,0,0,0,.329-.8Zm11.74-8.99-9.395,3.073c-.01-.1-.022-.2-.025-.3a4.5,4.5,0,0,1,.007-.492c.028-3.148,2.07-5.215,4.931-5.215a4.666,4.666,0,0,1,4.482,2.933Zm2.792.762a1.083,1.083,0,0,0-.062-.348,7.13,7.13,0,0,0-7.207-5.668,7.408,7.408,0,0,0-7.587,7.746c0,4.536,3.251,7.78,8.128,7.78,2.5,0,4.885-.883,5.93-2.352a1.21,1.21,0,0,0-.19-1.584,1.192,1.192,0,0,0-1.585-.006,5.665,5.665,0,0,1-4.055,1.531c-2.282,0-4-.847-4.886-2.537l10.721-3.507c.025-.007.05-.015.074-.024l.072-.024v-.006A1.106,1.106,0,0,0,140,12.462Z"
      fill="#fe5000" />
  </g>
</svg>
