<svg xmlns="http://www.w3.org/2000/svg" xmlns:xlink="http://www.w3.org/1999/xlink" width="195" height="30.61"
  viewBox="0 0 195 30.61">
  <defs>
    <clipPath id="a">
      <rect width="195" height="30.61" fill="#fff" />
    </clipPath>
  </defs>
  <g clip-path="url(#a)">
    <path
      d="M114.364,10.928V28.267a1.93,1.93,0,0,0,.54,1.4,1.9,1.9,0,0,0,1.371.584,1.9,1.9,0,0,0,1.371-.584,1.923,1.923,0,0,0,.539-1.4.309.309,0,0,0-.008-.084V10.922A1.924,1.924,0,0,0,117.6,9.6a1.9,1.9,0,0,0-2.661,0,1.924,1.924,0,0,0-.579,1.322ZM39.554,28.32v.034a1.915,1.915,0,0,0,1.161,1.781,1.895,1.895,0,0,0,2.078-.4,1.917,1.917,0,0,0,.569-1.35l.01-17.392a1.923,1.923,0,0,0-.558-1.356,1.9,1.9,0,0,0-2.693,0,1.923,1.923,0,0,0-.558,1.356Zm-4.58.037V18.073c0-6.238-3.5-9.2-8.62-9.2a9.474,9.474,0,0,0-8.1,3.918c-1.39-2.637-4.084-3.918-7.316-3.918a8.516,8.516,0,0,0-7.271,3.358V10.926a1.85,1.85,0,0,0-.536-1.3,1.823,1.823,0,0,0-2.592,0A1.85,1.85,0,0,0,0,10.926V28.377a1.937,1.937,0,0,0,.562,1.366,1.911,1.911,0,0,0,2.714,0,1.942,1.942,0,0,0,.562-1.366v-.051l-.012-8.975c0-4.6,2.5-7.037,6.317-7.037,3.456,0,5.444,2.04,5.444,6.2v9.832a1.957,1.957,0,0,0,.129.756,1.934,1.934,0,0,0,.412.645,1.91,1.91,0,0,0,2.749,0,1.94,1.94,0,0,0,.54-1.4V28.3l-.02-8.946c0-4.6,2.5-7.037,6.317-7.037,3.456,0,5.444,2.04,5.444,6.2v9.845a1.937,1.937,0,0,0,.579,1.323,1.9,1.9,0,0,0,2.662,0,1.93,1.93,0,0,0,.578-1.323ZM44.046,2.439A2.478,2.478,0,0,0,41.464,0a2.516,2.516,0,0,0-2.58,2.513,2.583,2.583,0,0,0,5.163-.08Zm24.2,25.908V18.073c0-6.238-3.615-9.2-8.74-9.2-3.337,0-6.038,1.24-7.588,3.4l.014-1.4a1.85,1.85,0,0,0-.537-1.3,1.822,1.822,0,0,0-2.591,0,1.85,1.85,0,0,0-.537,1.3v17.5h.041a1.917,1.917,0,0,0,.565,1.351,1.9,1.9,0,0,0,2.693-.012,1.908,1.908,0,0,0,.517-1.7V19.351c0-4.6,2.621-7.037,6.672-7.037,3.615,0,5.681,2.04,5.681,6.2l-.014,9.777v.044a1.917,1.917,0,0,0,.573,1.325,1.889,1.889,0,0,0,1.328.546,1.918,1.918,0,0,0,1.323-.531,1.944,1.944,0,0,0,.6-1.3Zm21.688-8.674c0,4.519-3.062,7.477-7.071,7.477-4.052,0-7.11-2.958-7.11-7.477s3.062-7.438,7.11-7.438c4.012,0,7.071,2.911,7.071,7.438m3.785,8.685L93.733,2.53s-.023,0-.023-.01A1.921,1.921,0,0,0,93.133,1.2a1.9,1.9,0,0,0-2.654,0A1.922,1.922,0,0,0,89.9,2.52h.009l-.016,9.762a8.93,8.93,0,0,0-7.348-3.4C76.389,8.883,71.9,13.2,71.9,19.672S76.389,30.51,82.546,30.51a8.875,8.875,0,0,0,7.508-3.6l-.014,1.461v.034a1.854,1.854,0,0,0,.537,1.3,1.824,1.824,0,0,0,2.591,0,1.849,1.849,0,0,0,.537-1.3.317.317,0,0,0,0-.046Zm17.64-.588a1.555,1.555,0,0,0-.856-1.4,1.535,1.535,0,0,0-1.622.153l-.023.012a3.622,3.622,0,0,1-2.613.735c-2.145,0-3.3-1.28-3.3-3.558V12.241h4.459a.334.334,0,0,0,.048,0,1.568,1.568,0,0,0,1.111-.463,1.59,1.59,0,0,0,0-2.236,1.568,1.568,0,0,0-1.111-.463h-4.492V6.391a1.928,1.928,0,0,0-.578-1.322,1.9,1.9,0,0,0-2.662,0,1.934,1.934,0,0,0-.579,1.322V23.876c0,4.282,2.425,6.638,6.675,6.638a8.875,8.875,0,0,0,4.712-1.358,1.541,1.541,0,0,0,.839-1.385Zm7.5-25.326A2.478,2.478,0,0,0,116.273,0a2.5,2.5,0,1,0,2.6,2.434ZM125.6,19.509c0-4.519,3.1-7.437,7.229-7.437a6.582,6.582,0,0,1,5.005,2.127v-.024a1.754,1.754,0,0,0,.561.47,1.745,1.745,0,0,0,1.425.094,1.754,1.754,0,0,0,1.021-1.006,1.775,1.775,0,0,0-.061-1.436,1.745,1.745,0,0,0-.456-.575,9.8,9.8,0,0,0-7.462-3.009c-6.474,0-11.122,4.478-11.122,10.788s4.648,10.836,11.122,10.836a9.774,9.774,0,0,0,7.509-3.072,1.823,1.823,0,0,0,.266-.294l.016-.015a1.772,1.772,0,0,0-.312-2.375,1.746,1.746,0,0,0-2.376.128h-.01a6.488,6.488,0,0,1-5.13,2.269c-4.13,0-7.229-2.879-7.229-7.477Zm36.357,9.058a1.849,1.849,0,0,0-.452-1.21l-7.548-9.645,6.546-6.477a1.626,1.626,0,0,0,.375-.524,1.643,1.643,0,0,0,.143-.628,1.622,1.622,0,0,0-.987-1.54,1.6,1.6,0,0,0-.628-.128,1.613,1.613,0,0,0-1.156.493l-4.825,4.453-4.448,4.069V2.472a1.927,1.927,0,0,0-.579-1.323,1.9,1.9,0,0,0-2.661,0,1.927,1.927,0,0,0-.579,1.323V28.233a1.929,1.929,0,0,0,.579,1.323,1.9,1.9,0,0,0,2.661,0,1.929,1.929,0,0,0,.579-1.323v-3.8l.014-.012v-1.93l2.185-2.122,1.176,1.468.315.392,6.038,7.544a1.835,1.835,0,0,0,2.924-.132,1.868,1.868,0,0,0,.329-1.068Zm12.769.258a1.578,1.578,0,0,0-.458-1.111,1.56,1.56,0,0,0-1.1-.459h-.079v-.009c-.159.012-.323.017-.5.017-2.185,0-3.258-1.279-3.258-3.556V2.694A1.918,1.918,0,0,0,168.165.87a1.905,1.905,0,0,0-2.519,1.072,1.934,1.934,0,0,0-.128.752v.053H165.5V24.03c0,4.079,2.3,6.479,6.4,6.479a7.949,7.949,0,0,0,1.248-.116,1.555,1.555,0,0,0,1.1-.46,1.575,1.575,0,0,0,.458-1.111ZM191.078,16.3l-13.085,4.281c-.014-.137-.031-.272-.035-.413a6.268,6.268,0,0,1,.01-.685c.039-4.384,2.883-7.264,6.868-7.264a6.5,6.5,0,0,1,6.242,4.085Zm3.889,1.061a1.508,1.508,0,0,0-.086-.485,9.932,9.932,0,0,0-10.038-7.894c-6.124,0-10.567,4.518-10.567,10.788,0,6.318,4.528,10.836,11.321,10.836,3.477,0,6.8-1.23,8.26-3.276a1.686,1.686,0,0,0-.265-2.206,1.66,1.66,0,0,0-2.207-.008,7.89,7.89,0,0,1-5.648,2.133c-3.178,0-5.573-1.179-6.806-3.534l14.933-4.884c.035-.009.069-.022.1-.034l.1-.033V18.76a1.541,1.541,0,0,0,.932-1.4Z"
      fill="#fff" />
  </g>
</svg>
